<svg width="28" height="28" viewBox="0 0 28 28" fill="none" xmlns="http://www.w3.org/2000/svg">
<path d="M0 14C0 6.26801 6.26801 0 14 0C21.732 0 28 6.26801 28 14C28 21.732 21.732 28 14 28C6.26801 28 0 21.732 0 14ZM14 0.875C6.75126 0.875 0.875 6.75126 0.875 14C0.875 21.2488 6.75126 27.125 14 27.125C21.2488 27.125 27.125 21.2488 27.125 14C27.125 6.75126 21.2488 0.875 14 0.875Z" fill="#C3C3C3"/>
<path d="M8.75 14H19.25" stroke="#4B5563" stroke-width="2" stroke-linecap="round" stroke-linejoin="round"/>
<path d="M14 8.75V19.25" stroke="#4B5563" stroke-width="2" stroke-linecap="round" stroke-linejoin="round"/>
</svg>
